:version 1.10
:name ASF
:units
  mass 1
  length 1
  angle deg
:documentation
  ASF file generated by Kaydara
:root
  axis xyz
  order  tx ty tz rx ry rz
  position 0 0 0
  orientation 0 0 0
:bonedata
  begin
    id 1
    name RightUpLegDummy
    direction -0.65628 -0.754516 0.00165102
    length 4.76918
    axis 0 0 0 xyz
  end
  begin
    id 2
    name RightUpLeg
    direction -0.145584 -0.923362 0.355256
    length 17.9961
    axis -24.7611 -13.1006 1.78531 xyz
    dof rx ry rz
  end
  begin
    id 3
    name RightLeg
    direction 0.263379 0.172355 -0.949171
    length 13.3386
    axis 89.6202 -21.1929 12.3855 xyz
    dof rx ry rz
  end
  begin
    id 4
    name RightFoot
    direction 0.224283 -0.968777 -0.105675
    length 5.86697
    axis 56.995 -39.6905 17.3365 xyz
    dof rx ry rz
  end
  begin
    id 5
    name RightToes
    direction -0.0806345 -0.9037 0.420506
    length 4.75197
    axis 146.825 -39.7828 17.6019 xyz
    dof rx ry rz
  end
  begin
    id 6
    name SpineDummy
    direction -3.39852e-014 1 9.33296e-014
    length 8.13779
    axis 0 0 0 xyz
  end
  begin
    id 7
    name Spine
    direction -0.156609 0.733703 0.661176
    length 7.14978
    axis 41.2365 5.68757 17.0844 xyz
    dof rx ry rz
  end
  begin
    id 8
    name Spine1
    direction 0 0 0
    length 0
    axis 42.8809 47.8308 -3.36039 xyz
    dof rx ry rz
  end
  begin
    id 9
    name HEadDummy
    direction 0.546431 0.701947 0.456819
    length 3.55512
    axis 42.8809 47.8308 -3.36039 xyz
  end
  begin
    id 10
    name HEad
    direction 0.23444 0.828559 0.508457
    length 7.35827
    axis 51.1864 49.2662 27.4903 xyz
    dof rx ry rz
  end
  begin
    id 11
    name LeftShoulder1Dummy
    direction 0.431183 0.475873 -0.766568
    length 2.49352
    axis 42.8809 47.8308 -3.36039 xyz
  end
  begin
    id 12
    name LeftShoulder1
    direction 0.268187 -0.383402 -0.883786
    length 4.48604
    axis -119.517 0.106469 35.1736 xyz
    dof rx ry rz
  end
  begin
    id 13
    name LeftArm
    direction 0.380567 -0.703221 -0.600541
    length 10.1142
    axis -5.41825 36.2925 7.8293 xyz
    dof rx ry rz
  end
  begin
    id 14
    name LeftForeArm
    direction 0.541071 -0.732356 -0.413396
    length 9.39839
    axis 4.65387 33.7604 7.81644 xyz
    dof rx ry rz
  end
  begin
    id 15
    name LeftHand
    direction 0.847511 -0.389379 -0.360707
    length 3.66142
    axis 7.65593 21.1436 -24.6758 xyz
    dof rx ry rz
  end
  begin
    id 16
    name RightShoulderDummy
    direction -0.692546 0.541855 0.476208
    length 2.49352
    axis 42.8809 47.8308 -3.36039 xyz
  end
  begin
    id 17
    name RightShoulder
    direction -0.870808 -0.316653 0.376065
    length 4.48602
    axis 141.571 51.133 -100.254 xyz
    dof rx ry rz
  end
  begin
    id 18
    name RightArm
    direction 0.366897 -0.87275 0.322015
    length 10.1142
    axis 92.3258 71.2036 138.917 xyz
    dof rx ry rz
  end
  begin
    id 19
    name RightForeArm
    direction 0.702487 -0.694568 0.155197
    length 9.39835
    axis 153.863 41.5092 -176.604 xyz
    dof rx ry rz
  end
  begin
    id 20
    name RightHand
    direction 0.79502 -0.601276 0.0800636
    length 3.66142
    axis 154.247 4.59222 142.9 xyz
    dof rx ry rz
  end
  begin
    id 21
    name LeftUpLegDummy
    direction 0.65628 -0.754516 0.00165102
    length 4.76919
    axis 0 0 0 xyz
  end
  begin
    id 22
    name LeftUpLeg
    direction -0.1277 -0.689368 0.713067
    length 17.9961
    axis -48.3385 -17.8675 0.791927 xyz
    dof rx ry rz
  end
  begin
    id 23
    name LeftLeg
    direction 0.109849 -0.991246 -0.0732378
    length 13.3386
    axis -2.05791 -7.30784 1.72042 xyz
    dof rx ry rz
  end
  begin
    id 24
    name LeftFoot
    direction 0.0448355 -0.272614 0.961078
    length 5.86697
    axis -18.7733 -7.89606 10.2113 xyz
    dof rx ry rz
  end
  begin
    id 25
    name LeftToes
    direction -0.18506 0.293668 0.937823
    length 4.75197
    axis 71.2267 -7.89606 10.2113 xyz
    dof rx ry rz
  end
:hierarchy
  begin
    root RightUpLegDummy SpineDummy LeftUpLegDummy
    RightUpLegDummy RightUpLeg
    RightUpLeg RightLeg
    RightLeg RightFoot
    RightFoot RightToes
    SpineDummy Spine
    Spine Spine1
    Spine1 HEadDummy LeftShoulder1Dummy RightShoulderDummy
    HEadDummy HEad
    LeftShoulder1Dummy LeftShoulder1
    LeftShoulder1 LeftArm
    LeftArm LeftForeArm
    LeftForeArm LeftHand
    RightShoulderDummy RightShoulder
    RightShoulder RightArm
    RightArm RightForeArm
    RightForeArm RightHand
    LeftUpLegDummy LeftUpLeg
    LeftUpLeg LeftLeg
    LeftLeg LeftFoot
    LeftFoot LeftToes
  end

:SAMPLES-PER-SECOND 30
:FULLY-SPECIFIED
:DEGREES
424
root  0.0267874 34.9339 3.04162 129.033 23.7332 13.5663
RightUpLeg  -25.1591 1.19242 -52.1079
RightLeg  -77.0775 -15.9574 6.50414
RightFoot  9.91501 8.0921 -20.1002
RightToes  -1.27222e-014 -6.36111e-015 6.36111e-015
Spine  -13.2353 -16.2771 -9.67169
Spine1  -25.9596 -12.8874 50.3768
HEad  -20.1875 -26.797 0.22473
LeftShoulder1  6.36111e-015 -1.33558e-015 6.49777e-015
LeftArm  -72.6746 -36.2026 31.9781
LeftForeArm  -17.8352 22.2058 7.37196
LeftHand  6.93984 14.5135 5.59701
RightShoulder  -4.77083e-015 -6.36111e-015 -3.18055e-015
RightArm  -26.1532 35.8974 -52.426
RightForeArm  -11.8996 -48.9208 -10.3457
RightHand  22.0545 -17.1226 -57.6813
LeftUpLeg  27.5449 6.77553 62.9085
LeftLeg  -42.2583 0.799873 -12.6533
LeftFoot  7.35511 7.8978 -21.3657
LeftToes  9.54166e-015 -1.91609e-011 -2.3878e-011
425
root  1.75948 35.1043 2.2637 118.638 41.411 -3.26427
RightUpLeg  -24.9401 2.10334 -52.5108
RightLeg  -73.1117 -17.8055 8.35481
RightFoot  8.06933 8.04237 -19.8197
RightToes  -1.27222e-014 -6.36111e-015 6.36111e-015
Spine  -10.2973 -8.85073 -1.71878
Spine1  -19.6491 -13.5572 27.3658
HEad  -21.1276 -30.0909 2.13903
LeftShoulder1  6.36111e-015 -1.33558e-015 6.49777e-015
LeftArm  -78.8168 -32.0324 36.4865
LeftForeArm  -14.7435 15.0029 7.71525
LeftHand  8.27422 12.6703 15.0604
RightShoulder  -4.77083e-015 -6.36111e-015 -3.18055e-015
RightArm  -25.3003 31.8229 -50.6223
RightForeArm  -13.4564 -50.8177 -9.59914
RightHand  21.5659 -16.8914 -56.9298
LeftUpLeg  28.2966 8.68808 63.0506
LeftLeg  -37.4727 -3.25587 -8.27315
LeftFoot  6.44203 8.2102 -22.7289
LeftToes  9.54166e-015 -1.91609e-011 -2.3878e-011
426
root  3.12185 35.203 1.13023 95.4279 54.166 -29.7599
RightUpLeg  -25.284 3.43187 -54.5369
RightLeg  -67.9374 -20.9978 11.0331
RightFoot  6.30916 8.14968 -19.8546
RightToes  -1.27222e-014 -6.36111e-015 6.36111e-015
Spine  -4.39992 -2.83206 5.31167
Spine1  -14.1308 -12.2513 5.36309
HEad  -19.5537 -33.5529 3.54934
LeftShoulder1  6.36111e-015 -1.33558e-015 6.49777e-015
LeftArm  -84.228 -35.2725 58.0724
LeftForeArm  -13.4919 22.7201 6.54177
LeftHand  9.28743 15.7724 12.5506
RightShoulder  -4.77083e-015 -6.36111e-015 -3.18055e-015
RightArm  -23.0093 28.499 -48.1543
RightForeArm  -11.1733 -49.6009 -8.69195
RightHand  19.94 -17.8103 -51.3987
LeftUpLeg  26.4587 13.8237 64.6721
LeftLeg  -32.7925 -6.18606 -4.01907
LeftFoot  7.27364 8.6541 -23.4138
LeftToes  9.54166e-015 -1.91609e-011 -2.3878e-011
427
root  4.10783 35.2148 -0.192957 61.5881 57.7994 -65.4188
RightUpLeg  -25.6573 5.04982 -56.2992
RightLeg  -61.8866 -24.9037 12.9634
RightFoot  5.29101 8.2525 -19.9639
RightToes  -1.27222e-014 -6.36111e-015 6.36111e-015
Spine  0.451676 1.19007 9.4021
Spine1  -11.0549 -9.72556 -7.26453
HEad  -15.7806 -33.8325 3.59265
LeftShoulder1  6.36111e-015 -1.33558e-015 6.49777e-015
LeftArm  -87.6106 -33.861 73.1691
LeftForeArm  -10.4007 26.5599 3.09173
LeftHand  10.6496 19.8114 10.1756
RightShoulder  -4.77083e-015 -6.36111e-015 -3.18055e-015
RightArm  -19.8579 27.3898 -44.4933
RightForeArm  -7.36452 -42.0757 -7.07005
RightHand  14.7884 -20.5023 -33.9374
LeftUpLeg  20.8125 21.2441 66.402
LeftLeg  -29.1157 -5.65894 -2.36454
LeftFoot  7.77741 8.44219 -22.5587
LeftToes  9.54166e-015 -1.91609e-011 -2.3878e-011
428
root  4.64096 35.0926 -1.70622 31.9206 52.2296 -96.0419
RightUpLeg  -24.2607 7.97128 -56.3598
RightLeg  -55.6656 -28.7138 13.6327
RightFoot  4.02948 8.89302 -21.2311
RightToes  -1.27222e-014 -6.36111e-015 6.36111e-015
Spine  1.97868 3.5662 11.5535
Spine1  -9.20173 -7.85774 -11.4799
HEad  -11.6459 -31.187 4.47786
LeftShoulder1  6.36111e-015 -1.33558e-015 6.49777e-015
LeftArm  -86.2826 -30.5905 78.1403
LeftForeArm  -6.15617 21.1699 2.27463
LeftHand  11.4353 18.9076 14.3122
RightShoulder  -4.77083e-015 -6.36111e-015 -3.18055e-015
RightArm  -14.9275 29.0132 -41.5776
RightForeArm  -7.60101 -26.6605 -4.14
RightHand  5.89816 -17.7523 -9.88226
LeftUpLeg  10.8308 25.7163 63.8975
LeftLeg  -27.4379 -2.13443 -3.48134
LeftFoot  4.81045 7.3689 -21.3632
LeftToes  9.54166e-015 -1.91609e-011 -2.3878e-011
429
root  4.49828 34.8617 -3.32721 12.6484 41.0116 -114.637
RightUpLeg  -21.1089 12.021 -55.7447
RightLeg  -50.6317 -31.6474 13.4945
RightFoot  3.25035 9.75185 -23.0896
RightToes  -1.27222e-014 -6.36111e-015 6.36111e-015
Spine  2.89421 4.9347 12.4638
Spine1  -8.45658 -6.84782 -12.9227
HEad  -7.4798 -29.1657 6.79547
LeftShoulder1  6.36111e-015 -1.33558e-015 6.49777e-015
LeftArm  -83.2448 -29.2042 80.8677
LeftForeArm  -1.67701 9.6654 3.28367
LeftHand  11.2823 17.3051 16.754
RightShoulder  -4.77083e-015 -6.36111e-015 -3.18055e-015
RightArm  -2.47745 36.5951 -40.0633
RightForeArm  -16.5945 -11.8683 -7.63892
RightHand  0.745158 -9.63451 4.32587
LeftUpLeg  -0.0597665 29.7582 58.3542
LeftLeg  -28.7775 -2.70685 -3.44532
LeftFoot  2.57639 7.07706 -21.8644
LeftToes  9.54166e-015 -1.91609e-011 -2.3878e-011
430
root  3.52996 34.5638 -4.8252 -0.205597 26.278 -124.771
RightUpLeg  -18.7703 16.3922 -55.2232
RightLeg  -46.0131 -33.838 12.6894
RightFoot  2.78625 10.5285 -24.8332
RightToes  -1.27222e-014 -6.36111e-015 6.36111e-015
Spine  4.95474 6.28451 12.7644
Spine1  -9.92334 -6.0815 -13.2109
HEad  -3.16856 -29.0297 8.95325
LeftShoulder1  6.36111e-015 -1.33558e-015 6.49777e-015
LeftArm  -81.2713 -29.7158 86.9462
LeftForeArm  3.01877 1.25136 1.827
LeftHand  12.2573 19.2895 16.3073
RightShoulder  -4.77083e-015 -6.36111e-015 -3.18055e-015
RightArm  7.91445 38.2847 -43.7182
RightForeArm  -29.9434 2.54799 -18.5548
RightHand  0.199087 -5.87184 4.56684
LeftUpLeg  -8.9575 38.6952 51.3069
LeftLeg  -31.0342 -7.6295 -1.93092
LeftFoot  4.79838 7.46476 -21.6428
LeftToes  9.54166e-015 -1.91609e-011 -2.3878e-011
431
root  1.76098 34.0474 -5.75058 -9.96902 9.42505 -130.237
RightUpLeg  -17.0689 19.3295 -53.6222
RightLeg  -42.1735 -37.6152 12.9575
RightFoot  2.41406 10.9741 -25.8557
RightToes  -1.27222e-014 -6.36111e-015 6.36111e-015
Spine  6.48171 7.56858 13.6804
Spine1  -12.0354 -5.04298 -11.1479
HEad  0.978617 -29.025 10.4413
LeftShoulder1  6.36111e-015 -1.33558e-015 6.49777e-015
LeftArm  -79.5696 -30.6553 91.9907
LeftForeArm  9.04275 -3.97259 -1.55027
LeftHand  12.6926 19.8264 16.7342
RightShoulder  -4.77083e-015 -6.36111e-015 -3.18055e-015
RightArm  12.2375 34.5214 -51.6694
RightForeArm  -45.4289 6.64985 -26.9004
RightHand  3.61331 -11.2658 -7.26263
LeftUpLeg  -16.5083 45.1785 42.7704
LeftLeg  -27.7982 -8.67098 -1.02704
LeftFoot  4.85815 6.88381 -19.9557
LeftToes  9.54166e-015 -1.91609e-011 -2.3878e-011
432
root  -0.321206 33.3666 -5.67567 -18.3688 -8.56517 -132.58
RightUpLeg  -12.9942 19.7079 -50.3265
RightLeg  -41.372 -39.5178 13.5403
RightFoot  4.08569 9.88082 -23.4016
RightToes  -1.27222e-014 -6.36111e-015 6.36111e-015
Spine  6.30472 8.12453 14.4964
Spine1  -11.8088 -4.09647 -8.66454
HEad  5.0215 -30.278 11.2927
LeftShoulder1  6.36111e-015 -1.33558e-015 6.49777e-015
LeftArm  -75.7186 -29.8045 92.5532
LeftForeArm  17.0936 -13.4059 -6.42632
LeftHand  10.5226 16.7174 15.2383
RightShoulder  -4.77083e-015 -6.36111e-015 -3.18055e-015
RightArm  12.257 24.6883 -60.0382
RightForeArm  -55.967 4.47741 -26.399
RightHand  9.90149 -17.7327 -23.0881
LeftUpLeg  -16.4636 40.5196 39.0242
LeftLeg  -22.5191 -1.57164 -2.97458
LeftFoot  4.01238 7.06056 -20.9432
LeftToes  9.54166e-015 -1.91609e-011 -2.3878e-011
